<svg width="184" height="81" viewBox="0 0 184 81" fill="none" xmlns="http://www.w3.org/2000/svg">
<rect x="8" y="8" width="65" height="65" rx="16" fill="#F9253F"/>
<path fill-rule="evenodd" clip-rule="evenodd" d="M43.8596 35.4612C45.2336 35.4636 46.4644 35.4673 47.1753 35.4701C46.4832 32.9202 44.5044 29.202 42.417 26.513C41.7929 25.7092 41.0768 25.0102 39.8117 24.9024L23.0093 24.8942L23.0079 27.9945L38.1368 28.0019C38.4334 28.0019 39.0099 28.0828 39.0099 28.0828C41.0559 28.4999 42.4483 32.5036 43.8596 35.4612ZM37.8848 40.0988C37.139 40.0983 36.5304 40.7208 36.5298 41.4876C36.5293 41.6464 36.5562 41.7985 36.6041 41.9408C36.7861 42.4838 37.2864 42.8774 37.8771 42.8788C38.4686 42.879 38.9714 42.4887 39.1575 41.9468C39.2067 41.8037 39.2351 41.6508 39.2356 41.4909C39.2359 40.7241 38.6297 40.1004 37.8848 40.0988ZM40.7495 41.8964C40.5265 43.3721 39.2916 44.5066 37.8047 44.5057H37.8017C37.0077 44.5043 36.2617 44.1823 35.7016 43.5987C35.2488 43.1269 34.9642 42.5295 34.8714 41.8829C34.8491 41.7291 34.8347 41.5736 34.8347 41.4154C34.8402 39.7192 36.1711 38.3396 37.8163 38.3404C38.6128 38.3418 39.3606 38.6636 39.9222 39.2474C40.4832 39.8305 40.791 40.6058 40.789 41.4297C40.7885 41.5887 40.7727 41.7437 40.7495 41.8964ZM54.6948 23.1817C50.9446 16.0116 48.8175 16.0105 48.0168 16.0102L27.0558 16C24.827 15.9989 23.0128 17.842 23.0117 20.1084L23.0103 23.3211L39.9649 23.3294C40.6632 23.3314 41.4824 23.4062 42.3364 24.2066L46.4448 24.2199C47.0281 24.2207 47.5774 24.458 47.9915 24.8885C48.4056 25.3191 48.633 25.89 48.6311 26.496L48.6293 26.5957L48.6284 28.4675C48.6279 29.0966 48.0993 29.6408 47.3709 29.7617L47.1679 29.7957L47.1772 26.4098L47.6013 26.4101C47.563 25.787 47.0569 25.2854 46.4402 25.2841L43.3503 25.2766C46.1653 28.5699 49.0061 34.3922 49.0031 36.6976C49.0031 36.6976 49.0028 36.8238 49.002 37.0296L47.2812 37.0285L47.2805 38.1988L48.9987 38.2018C48.9954 39.2999 48.9917 40.6268 48.9917 40.8055C48.9913 41.1187 48.925 41.7045 48.056 41.7012C47.8745 41.7012 45.5404 41.6954 41.7572 41.6866C41.7746 41.5333 41.7858 41.3778 41.786 41.22C41.789 40.121 41.3783 39.0875 40.63 38.3094C39.8813 37.5314 38.8845 37.1019 37.8083 37.1006C35.6315 37.0995 33.8549 38.9381 33.8484 41.1998C33.8481 41.3579 33.8584 41.496 33.8747 41.6504C30.9404 41.6434 26.5168 41.6523 23.0016 41.6453L23 44.8783C22.9989 47.1439 24.8115 48.9886 27.0403 48.9897L48.0013 49C48.8033 49.0003 50.9337 49.0013 54.6911 41.7465C56.2168 38.8009 57.9989 34.5933 58 32.4306C58.0008 30.2691 56.2204 26.0972 54.6948 23.1817ZM37.9526 31.5735L23.006 31.5663L23.0055 32.8636L39.2398 32.8717L38.9193 32.1433C38.7169 31.7906 38.3493 31.5738 37.9526 31.5735ZM30.6671 37.2905L30.7599 37.1299L23.0036 37.1261L23.0031 37.8674L29.5064 37.8708C30.0084 37.8708 30.4633 37.6435 30.6671 37.2905Z" fill="white"/>
<path fill-rule="evenodd" clip-rule="evenodd" d="M59.2864 60.479C59.8542 60.1674 60.2666 59.8211 60.5239 59.4402C60.7812 59.0595 60.9103 58.5726 60.9103 57.9793C60.9109 57.4885 60.7964 57.0155 60.5674 56.5601C60.338 56.1051 59.954 55.77 59.4156 55.5549C58.8772 55.3398 58.3372 55.2321 57.7963 55.2319L54.6887 55.2304L54.6842 64.8104L56.7721 64.8113L56.7756 56.7653L57.5921 56.7657C58.3458 56.7661 58.7227 57.2241 58.7222 58.1394C58.7222 58.5434 58.6325 58.877 58.4527 59.1401C58.2997 59.364 57.9832 59.4917 57.4711 59.5251L57.4706 60.791L58.8751 64.8123L61 64.8134L59.2864 60.479ZM48.8563 59.3849L48.8561 59.9984C48.8555 61.0059 48.8887 61.6694 48.9555 61.9891C49.0224 62.3086 49.1653 62.5604 49.3843 62.7447C49.6034 62.9289 49.8648 63.021 50.169 63.0212C50.4165 63.0213 50.6433 62.9321 50.8494 62.753C51.0558 62.5742 51.2003 62.3019 51.283 61.9364C51.3655 61.5708 51.4071 60.9202 51.4076 59.9842C51.408 59.1459 51.3735 58.5489 51.3041 58.1933C51.2346 57.8381 51.0944 57.5503 50.8831 57.3302C50.6717 57.1103 50.4142 57.0002 50.11 57.0001C49.6668 56.9999 49.347 57.1903 49.1511 57.5711C48.9549 57.9521 48.8568 58.5566 48.8563 59.3849ZM47.0946 57.0063C47.3888 56.3776 47.7793 55.8895 48.2667 55.5418C48.754 55.1944 49.3686 55.0209 50.111 55.0212C50.7243 55.0215 51.219 55.1227 51.5952 55.3249C51.9713 55.5272 52.3207 55.8214 52.6425 56.2074C52.9645 56.5937 53.2001 57.0719 53.349 57.6421C53.4984 58.2124 53.5729 58.968 53.5724 59.9087C53.5714 61.8366 53.2472 63.1671 52.6002 63.9005C51.9528 64.6343 51.1165 65.0004 50.0907 65C49.0442 64.9995 48.2094 64.6194 47.5861 63.86C46.9627 63.1003 46.6515 61.8026 46.6523 59.9667C46.653 58.6218 46.8004 57.6352 47.0946 57.0063ZM45.5396 57.0976L43.0961 57.0965L43.0952 59.0525L45.1907 59.0535L45.1898 60.8327L43.0944 60.8317L43.0924 64.805L41.0204 64.804L41.0249 55.224L45.5404 55.2261L45.5396 57.0976ZM39.4534 57.9232C38.9021 57.2837 38.374 56.9638 37.8687 56.9635C37.6418 56.9634 37.4396 57.0376 37.2618 57.186C37.0839 57.3341 36.9949 57.5001 36.9948 57.6842C36.9947 58.0166 37.2753 58.4105 37.8369 58.8658C38.4242 59.3315 38.8416 59.6985 39.089 59.967C39.3361 60.2356 39.5345 60.5515 39.6838 60.9148C39.8331 61.2779 39.9077 61.6741 39.9074 62.1035C39.907 62.9474 39.6348 63.6401 39.0907 64.1818C38.5466 64.7239 37.8469 64.9942 36.9913 64.9938C36.2902 64.9935 35.6047 64.7452 34.9349 64.249L34.9359 61.9863C35.5799 62.682 36.2242 63.03 36.8684 63.0303C37.157 63.0304 37.3979 62.9515 37.5915 62.7928C37.7848 62.6344 37.8815 62.4402 37.8816 62.2099C37.8818 61.8675 37.6347 61.4865 37.1401 61.0668C36.3517 60.3915 35.8352 59.8889 35.5906 59.559C35.3458 59.229 35.163 58.8966 35.0421 58.5616C34.921 58.2267 34.8607 57.8879 34.8609 57.5452C34.8612 56.8088 35.1216 56.2004 35.6426 55.72C36.1634 55.2399 36.826 54.9997 37.6301 55C38.2382 55.0003 38.8464 55.1746 39.4546 55.5225L39.4534 57.9232ZM33.7443 62.1006C33.7439 63.0007 33.4716 63.7076 32.9278 64.221C32.3837 64.7348 31.6297 64.9913 30.6661 64.9907C29.666 64.9903 28.8964 64.7266 28.3582 64.1998C27.8199 63.6729 27.5509 62.9184 27.5513 61.9366L27.5546 55.2176L29.6576 55.2186L29.6546 61.6077C29.6544 62.0579 29.7432 62.4045 29.9209 62.6472C30.0984 62.8902 30.3472 63.0117 30.667 63.0119C30.9657 63.0121 31.2015 62.8946 31.3744 62.6594C31.547 62.4243 31.6335 62.1072 31.6336 61.7086L31.6368 55.2196L33.7477 55.2205L33.7443 62.1006ZM26.0974 60.9154C25.8706 60.5422 25.4765 60.2276 24.9148 59.9715C25.3789 59.711 25.7166 59.4019 25.928 59.0439C26.1396 58.6862 26.2454 58.2207 26.2456 57.648C26.2459 56.9423 25.9797 56.3607 25.4465 55.9027C24.9133 55.445 24.229 55.2157 23.3939 55.2153L20.0046 55.2137L20 64.7937L23.8842 64.7956C24.6005 64.7959 25.205 64.5635 25.6976 64.0985C26.1902 63.6333 26.4365 63.0608 26.4368 62.3807C26.4371 61.7773 26.3239 61.289 26.0974 60.9154ZM23.9534 62.8936C23.7565 63.1085 23.4793 63.2183 23.1219 63.2231L22.0884 63.2226L22.0915 56.7491L22.7915 56.7495C23.6667 56.7499 24.1043 57.1796 24.1039 58.0385C24.1037 58.4119 23.9986 58.7099 23.7887 58.9321C23.579 59.1543 23.298 59.2655 22.9456 59.2654L22.7866 59.2653L22.7858 60.7149L22.9447 60.715C23.8146 60.7153 24.2493 61.1375 24.2489 61.9812C24.2486 62.3749 24.1502 62.6791 23.9534 62.8936Z" fill="white"/>
<path fill-rule="evenodd" clip-rule="evenodd" d="M103 40.5L92 31.5V36.5H81V44.5H92V49.5L103 40.5Z" fill="#044752"/>
<rect x="111.75" y="8.75" width="63.5" height="63.5" rx="15.25" stroke="white" stroke-width="1.5"/>
<g clip-path="url(#clip0_1690_1828)">
<path fill-rule="evenodd" clip-rule="evenodd" d="M167.768 45.2757C166.467 37.4704 159.198 32.216 151.531 33.5398L153.794 20.4708L145.601 19C144.897 20.5693 141.813 27.737 140.315 35.8286C143.369 37.9466 145.607 41.2743 146.273 45.2757C146.985 49.5481 145.758 53.6966 143.246 56.7963C143.863 57.5591 144.566 58.266 145.368 58.9049C148.576 61.4599 152.457 62.4586 156.24 61.8056C163.907 60.4818 169.068 53.0812 167.768 45.2757Z" fill="#054752"/>
<path fill-rule="evenodd" clip-rule="evenodd" d="M140.158 36.7182C140.208 36.4205 140.261 36.1241 140.316 35.8286C137.413 33.8152 133.773 32.8946 130.037 33.5398L132.3 20.4708L124.107 19C123.377 20.6266 120.09 28.2677 118.664 36.7182C117.52 43.4927 117.573 50.7872 121.098 55.9209C121.856 57.024 122.773 58.0279 123.874 58.9049C127.082 61.4599 130.964 62.4586 134.746 61.8056C138.216 61.2064 141.17 59.3596 143.247 56.7963C143.017 56.512 142.799 56.2205 142.593 55.9209C139.068 50.7872 139.015 43.4927 140.158 36.7182Z" fill="white"/>
<path fill-rule="evenodd" clip-rule="evenodd" d="M146.274 45.2758C145.607 41.2743 143.369 37.9466 140.316 35.8286C140.261 36.1241 140.208 36.4205 140.158 36.7182C139.014 43.4927 139.068 50.7872 142.592 55.9209C142.798 56.2205 143.017 56.512 143.247 56.7963C145.758 53.6966 146.986 49.5481 146.274 45.2758Z" fill="#9AED66"/>
</g>
<defs>
<clipPath id="clip0_1690_1828">
<rect width="50" height="43" fill="white" transform="translate(118 19)"/>
</clipPath>
</defs>
</svg>