<svg width="128" height="40" viewBox="0 0 128 40" fill="none" xmlns="http://www.w3.org/2000/svg">
<g clip-path="url(#clip0_1398_5149)">
<path fill-rule="evenodd" clip-rule="evenodd" d="M78.945 33.0632C78.5521 30.668 76.3556 29.0556 74.039 29.4618L74.7229 25.4514L72.2474 25C72.0347 25.4816 71.1029 27.6811 70.6504 30.1642C71.573 30.8141 72.2491 31.8353 72.4505 33.0632C72.6656 34.3743 72.2948 35.6473 71.5359 36.5985C71.7222 36.8326 71.9347 37.0496 72.1771 37.2456C73.1462 38.0297 74.319 38.3361 75.4618 38.1358C77.7784 37.7295 79.3379 35.4585 78.945 33.0632Z" fill="#054752"/>
<path fill-rule="evenodd" clip-rule="evenodd" d="M70.6022 30.4372C70.6174 30.3458 70.6334 30.2549 70.65 30.1642C69.7729 29.5463 68.6731 29.2639 67.5441 29.4618L68.228 25.4514L65.7525 25C65.532 25.4992 64.5387 27.844 64.1078 30.4372C63.7623 32.5161 63.7783 34.7545 64.8434 36.3299C65.0723 36.6684 65.3495 36.9765 65.6821 37.2456C66.6513 38.0297 67.8241 38.3361 68.9669 38.1358C70.0155 37.9519 70.908 37.3852 71.5355 36.5985C71.4661 36.5113 71.4 36.4218 71.3379 36.3299C70.2727 34.7545 70.2567 32.5161 70.6022 30.4372Z" fill="white"/>
<path fill-rule="evenodd" clip-rule="evenodd" d="M72.4498 33.0633C72.2484 31.8354 71.5722 30.8142 70.6496 30.1643C70.6331 30.255 70.6171 30.3459 70.6019 30.4373C70.2563 32.5162 70.2725 34.7546 71.3375 36.33C71.3996 36.4219 71.4658 36.5114 71.5353 36.5987C72.294 35.6474 72.6649 34.3744 72.4498 33.0633Z" fill="#9AED66"/>
<path fill-rule="evenodd" clip-rule="evenodd" d="M127.877 31.8592C127.747 31.8347 127.593 31.8226 127.44 31.8226C126.779 31.8226 126.259 32.1277 125.881 32.5429V32.0667C125.881 31.9813 125.846 31.9446 125.763 31.9446H124.842C124.759 31.9446 124.724 31.9813 124.724 32.0667V37.9512C124.724 38.0367 124.759 38.0733 124.842 38.0733H125.763C125.846 38.0733 125.881 38.0367 125.881 37.9512V34.7648C125.881 33.3852 126.956 32.8603 127.853 33.0556C127.936 33.0678 127.983 33.0312 127.983 32.9457V31.9935C127.983 31.9202 127.948 31.8714 127.877 31.8592ZM121.059 37.0478C120.35 37.0478 119.984 36.706 119.984 36.1566C119.984 35.5339 120.539 35.2409 121.224 35.2409C121.838 35.2409 122.192 35.3264 122.735 35.4973C122.735 36.4984 121.968 37.0478 121.059 37.0478ZM121.472 31.8226C120.197 31.8226 119.405 32.5062 119.087 33.3852C119.051 33.4829 119.11 33.5196 119.181 33.5317L120.137 33.6905C120.208 33.7027 120.244 33.6782 120.279 33.605C120.374 33.4096 120.669 32.9213 121.472 32.9213C122.298 32.9213 122.735 33.4219 122.735 34.1788V34.3985C122.216 34.2398 121.802 34.1422 121.165 34.1422C119.842 34.1422 118.756 34.8503 118.756 36.2054C118.756 37.4995 119.783 38.1954 120.893 38.1954C121.802 38.1954 122.322 37.9146 122.735 37.4995V37.9512C122.735 38.0367 122.771 38.0733 122.853 38.0733H123.774C123.857 38.0733 123.892 38.0367 123.892 37.9512V34.0933C123.892 32.6771 122.948 31.8226 121.472 31.8226ZM114.581 30.6261C115.739 30.6261 116.494 31.1877 116.837 32.4208C116.86 32.5062 116.908 32.5429 116.978 32.5429H117.935C118.029 32.5429 118.065 32.5184 118.065 32.4208C117.84 30.5529 116.435 29.4053 114.581 29.4053C112.716 29.4053 110.945 30.7726 110.945 33.8003C110.945 36.8281 112.716 38.1954 114.581 38.1954C116.435 38.1954 117.84 37.0478 118.065 35.1799C118.065 35.0823 118.029 35.0578 117.935 35.0578H116.978C116.908 35.0578 116.86 35.0944 116.837 35.1799C116.494 36.4129 115.739 36.9746 114.581 36.9746C113.365 36.9746 112.22 35.9735 112.22 33.8003C112.22 31.6272 113.365 30.6261 114.581 30.6261ZM107.369 37.0478C106.66 37.0478 106.294 36.706 106.294 36.1566C106.294 35.5339 106.849 35.2409 107.534 35.2409C108.148 35.2409 108.503 35.3264 109.046 35.4973C109.046 36.4984 108.278 37.0478 107.369 37.0478ZM107.782 31.8226C106.507 31.8226 105.716 32.5062 105.397 33.3852C105.362 33.4829 105.421 33.5196 105.491 33.5317L106.448 33.6905C106.519 33.7027 106.554 33.6782 106.59 33.605C106.684 33.4096 106.979 32.9213 107.782 32.9213C108.609 32.9213 109.046 33.4219 109.046 34.1788V34.3985C108.526 34.2398 108.113 34.1422 107.475 34.1422C106.153 34.1422 105.066 34.8503 105.066 36.2054C105.066 37.4995 106.094 38.1954 107.204 38.1954C108.113 38.1954 108.632 37.9146 109.046 37.4995V37.9512C109.046 38.0367 109.081 38.0733 109.164 38.0733H110.085C110.168 38.0733 110.203 38.0367 110.203 37.9512V34.0933C110.203 32.6771 109.258 31.8226 107.782 31.8226ZM104.109 29.5274L103.188 29.686C103.117 29.6983 103.081 29.7471 103.081 29.8203V37.9512C103.081 38.0367 103.117 38.0733 103.2 38.0733H104.121C104.203 38.0733 104.239 38.0367 104.239 37.9512V29.6372C104.239 29.5518 104.18 29.5151 104.109 29.5274ZM99.63 36.8524H97.6511V34.191H99.63C100.457 34.191 101.023 34.7282 101.023 35.5096C101.023 36.4374 100.457 36.8524 99.63 36.8524ZM97.6511 30.7482H99.0514C99.6418 30.7482 100.173 31.1023 100.173 31.8592C100.173 32.6161 99.6418 32.9702 99.0514 32.9702H97.6511V30.7482ZM100.775 33.2509C100.775 33.2509 101.401 32.8236 101.401 31.7127C101.401 30.2843 100.232 29.5274 98.9687 29.5274H96.541C96.4583 29.5274 96.4231 29.564 96.4231 29.6494V37.9512C96.4231 38.0367 96.4583 38.0733 96.541 38.0733H99.7717C101.295 38.0733 102.251 37.0234 102.251 35.5828C102.251 34.2032 101.401 33.5073 100.775 33.2509ZM92.7662 37.0478C92.0579 37.0478 91.6916 36.706 91.6916 36.1566C91.6916 35.5339 92.2468 35.2409 92.9316 35.2409C93.5455 35.2409 93.8998 35.3264 94.4429 35.4973C94.4429 36.4984 93.6754 37.0478 92.7662 37.0478ZM93.1795 31.8226C91.9043 31.8226 91.1133 32.5062 90.7945 33.3852C90.759 33.4829 90.8179 33.5196 90.8886 33.5317L91.8453 33.6905C91.916 33.7027 91.9515 33.6782 91.987 33.605C92.0814 33.4096 92.3767 32.9213 93.1795 32.9213C94.006 32.9213 94.4429 33.4219 94.4429 34.1788V34.3985C93.9235 34.2398 93.5103 34.1422 92.8724 34.1422C91.55 34.1422 90.4637 34.8503 90.4637 36.2054C90.4637 37.4995 91.491 38.1954 92.6008 38.1954C93.5103 38.1954 94.0297 37.9146 94.4429 37.4995V37.9512C94.4429 38.0367 94.4784 38.0733 94.5611 38.0733H95.482C95.5647 38.0733 95.6002 38.0367 95.6002 37.9512V34.0933C95.6002 32.6771 94.6556 31.8226 93.1795 31.8226ZM89.506 29.5274L88.5851 29.686C88.5142 29.6983 88.4788 29.7471 88.4788 29.8203V37.9512C88.4788 38.0367 88.5142 38.0733 88.597 38.0733H89.518C89.6007 38.0733 89.6359 38.0367 89.6359 37.9512V29.6372C89.6359 29.5518 89.5769 29.5151 89.506 29.5274ZM85.0272 36.8524H83.0484V34.191H85.0272C85.8538 34.191 86.4206 34.7282 86.4206 35.5096C86.4206 36.4374 85.8538 36.8524 85.0272 36.8524ZM83.0484 30.7482H84.4487C85.0391 30.7482 85.5704 31.1023 85.5704 31.8592C85.5704 32.6161 85.0391 32.9702 84.4487 32.9702H83.0484V30.7482ZM86.1726 33.2509C86.1726 33.2509 86.7984 32.8236 86.7984 31.7127C86.7984 30.2843 85.6295 29.5274 84.366 29.5274H81.9384C81.8558 29.5274 81.8203 29.564 81.8203 29.6494V37.9512C81.8203 38.0367 81.8558 38.0733 81.9384 38.0733H85.1689C86.6922 38.0733 87.6486 37.0234 87.6486 35.5828C87.6486 34.2032 86.7984 33.5073 86.1726 33.2509Z" fill="white"/>
</g>
<path d="M50.4847 34.9321C51.2322 35.0301 51.71 35.4467 51.71 36.2922C51.71 37.4072 50.7053 37.8851 49.676 37.8851H46.7354V32.2242H49.7741C50.7911 32.2242 51.5385 32.7266 51.5385 33.6456C51.5385 34.3195 51.2077 34.7606 50.4847 34.9199V34.9321ZM49.5045 33.2045H47.9361V34.4788H49.5168C49.9946 34.4788 50.2887 34.2582 50.2887 33.8171C50.2887 33.4373 50.0069 33.2045 49.5045 33.2045ZM49.5658 36.9048C50.1049 36.9048 50.4725 36.6598 50.4725 36.1819C50.4725 35.6673 50.1662 35.4345 49.676 35.4345H47.9361V36.9048H49.5658Z" fill="white"/>
<path d="M53.5354 29.259C54.0255 29.259 54.4176 29.6511 54.4176 30.1412C54.4176 30.6314 54.0255 31.0234 53.5354 31.0234C53.0453 31.0234 52.6532 30.6314 52.6532 30.1412C52.6532 29.6511 53.0453 29.259 53.5354 29.259ZM52.935 37.8851V32.2242H54.1358V37.8851H52.935Z" fill="white"/>
<path d="M60.3669 36.9661H61.1633V39.4779H60.1096V38.0688H55.9803V39.4779H54.9266V36.9661H55.6618C55.9558 36.4392 56.1274 35.9246 56.1274 35.1404V32.2242H60.3669V36.9661ZM57.3282 35.2139C57.3282 35.9736 57.1811 36.476 56.9361 36.9661H59.1661V33.327H57.3282V35.2139Z" fill="white"/>
<path fill-rule="evenodd" clip-rule="evenodd" d="M124.617 11.0227C125.738 10.3968 126.552 9.70124 127.06 8.93604C127.568 8.17134 127.823 7.19334 127.823 6.00154C127.824 5.01576 127.598 4.06557 127.146 3.15094C126.693 2.23696 125.935 1.56373 124.872 1.13169C123.809 0.699641 122.743 0.4834 121.675 0.48297L115.54 0.479931L115.531 19.7231L119.653 19.725L119.66 3.56303L121.272 3.5639C122.76 3.56455 123.504 4.4846 123.503 6.32314C123.503 7.13474 123.326 7.80474 122.971 8.33334C122.669 8.78294 122.044 9.03954 121.033 9.10654L121.032 11.6495L123.805 19.727L128 19.7291L124.617 11.0227ZM104.025 8.82504L104.025 10.0574C104.024 12.081 104.089 13.4138 104.221 14.056C104.353 14.6978 104.635 15.2036 105.068 15.5738C105.5 15.9438 106.016 16.1288 106.617 16.1291C107.105 16.1293 107.553 15.9503 107.96 15.5905C108.368 15.2313 108.653 14.6843 108.816 13.9502C108.979 13.2158 109.061 11.909 109.062 10.0288C109.063 8.34494 108.995 7.14574 108.858 6.43144C108.721 5.71792 108.444 5.1399 108.027 4.69766C107.609 4.25607 107.101 4.03485 106.5 4.03463C105.625 4.0342 104.994 4.41679 104.607 5.18155C104.22 5.94695 104.026 7.16114 104.025 8.82504ZM100.547 4.04717C101.128 2.78421 101.899 1.80387 102.861 1.10548C103.823 0.40753 105.037 0.0589806 106.502 0.0596306C107.713 0.0602906 108.69 0.26351 109.433 0.66975C110.175 1.07598 110.865 1.66701 111.5 2.44239C112.136 3.21843 112.601 4.17882 112.895 5.32422C113.19 6.46984 113.337 7.98764 113.336 9.87714C113.334 13.7497 112.694 16.4222 111.417 17.8954C110.139 19.3694 108.487 20.1048 106.462 20.104C104.396 20.1029 102.748 19.3394 101.517 17.814C100.287 16.288 99.6724 13.6814 99.6741 9.99364C99.6754 7.29224 99.9665 5.31034 100.547 4.04717ZM97.4772 4.23044L92.6532 4.22827L92.6515 8.15724L96.7884 8.15924L96.7867 11.7331L92.6498 11.7311L92.6459 19.7123L88.5552 19.7103L88.5642 0.466961L97.4789 0.4713L97.4772 4.23044ZM85.4616 5.88896C84.3732 4.60432 83.3306 3.96167 82.3331 3.96124C81.8851 3.96102 81.4859 4.11003 81.1348 4.40803C80.7836 4.70561 80.6079 5.03897 80.6077 5.40877C80.6075 6.07654 81.1615 6.86774 82.2703 7.78224C83.4297 8.71784 84.2537 9.45504 84.7421 9.99424C85.2301 10.5338 85.6218 11.1683 85.9165 11.8981C86.2112 12.6275 86.3585 13.4233 86.358 14.2858C86.3572 15.981 85.8197 17.3724 84.7455 18.4605C83.6713 19.5493 82.2899 20.0924 80.6008 20.0916C79.2166 20.0909 77.8632 19.5921 76.5409 18.5954L76.543 14.0503C77.8144 15.4479 79.0864 16.1468 80.3581 16.1474C80.928 16.1476 81.4036 15.9891 81.7858 15.6705C82.1674 15.3523 82.3583 14.9621 82.3585 14.4995C82.3589 13.8117 81.8711 13.0465 80.8945 12.2035C79.3381 10.847 78.3183 9.83744 77.8354 9.17464C77.3522 8.51184 76.9912 7.84424 76.7526 7.17124C76.5136 6.49864 76.3945 5.81804 76.3949 5.12963C76.3955 3.65043 76.9095 2.42826 77.9382 1.46331C78.9664 0.49902 80.2745 0.0164405 81.8619 0.0170905C83.0625 0.0177405 84.2633 0.367801 85.464 1.06662L85.4616 5.88896ZM74.1905 14.2799C74.1896 16.0881 73.652 17.5079 72.5784 18.5392C71.5042 19.5713 70.0157 20.0865 68.1132 20.0854C66.1389 20.0845 64.6194 19.5549 63.5568 18.4967C62.4942 17.4382 61.963 15.9228 61.9639 13.9506L61.9703 0.45423L66.1223 0.45618L66.1163 13.29C66.1159 14.1942 66.2913 14.8904 66.6421 15.378C66.9925 15.866 67.4837 16.1102 68.1151 16.1106C68.7048 16.1109 69.1702 15.8749 69.5116 15.4025C69.8523 14.9303 70.0232 14.2933 70.0234 13.4926L70.0297 0.458131L74.1971 0.46008L74.1905 14.2799ZM59.0935 11.8993C58.6457 11.1497 57.8677 10.5177 56.7587 10.0032C57.6749 9.48014 58.3418 8.85914 58.759 8.14014C59.1769 7.42164 59.3857 6.48654 59.3861 5.33619C59.3867 3.91859 58.8611 2.75042 57.8084 1.83037C56.7557 0.910971 55.4048 0.4503 53.7562 0.44965L47.0647 0.44639L47.0557 19.6897L54.724 19.6934C56.1383 19.6941 57.3316 19.2273 58.3041 18.2932C59.2767 17.3588 59.7629 16.2087 59.7636 14.8427C59.7642 13.6305 59.5407 12.6497 59.0935 11.8993ZM54.8608 15.8729C54.4719 16.3045 53.9248 16.5251 53.2192 16.5348L51.1787 16.5338L51.1849 3.53056L52.5668 3.53121C54.2947 3.53208 55.1587 4.3953 55.1579 6.12044C55.1574 6.87064 54.95 7.46924 54.5355 7.91544C54.1215 8.36184 53.5668 8.58514 52.871 8.58494L52.5571 8.58474L52.5556 11.4965L52.8693 11.4967C54.5867 11.4973 55.4449 12.3454 55.444 14.0402C55.4436 14.8309 55.2492 15.4421 54.8608 15.8729Z" fill="white"/>
<path d="M33.0524 6H0V33.1175H33.0524V6Z" fill="white"/>
<path fill-rule="evenodd" clip-rule="evenodd" d="M25.0525 22.9996C26.6994 23.0024 28.1746 23.0068 29.0266 23.0101C28.1971 19.9966 25.8253 15.6023 23.3235 12.4244C22.5754 11.4745 21.7171 10.6484 20.2008 10.5211L0.0619332 10.5113L0.0603027 14.1753L18.1934 14.1841C18.5489 14.1841 19.2398 14.2797 19.2398 14.2797C21.6921 14.7726 23.361 19.5043 25.0525 22.9996ZM17.8913 28.4804C16.9974 28.4798 16.268 29.2155 16.2672 30.1217C16.2666 30.3093 16.2989 30.4892 16.3563 30.6573C16.5744 31.299 17.1741 31.7642 17.8821 31.7658C18.591 31.7661 19.1937 31.3049 19.4168 30.6644C19.4757 30.4953 19.5098 30.3146 19.5104 30.1256C19.5107 29.2194 18.7841 28.4823 17.8913 28.4804ZM21.3249 30.6048C21.0576 32.3489 19.5774 33.6896 17.7953 33.6885H17.7917C16.8401 33.6869 15.9459 33.3063 15.2745 32.6166C14.7319 32.0591 14.3908 31.353 14.2796 30.5889C14.2528 30.4071 14.2355 30.2234 14.2355 30.0363C14.2421 28.0317 15.8373 26.4014 17.8092 26.4023C18.7638 26.4039 19.6602 26.7842 20.3332 27.4742C21.0057 28.1633 21.3745 29.0796 21.3721 30.0533C21.3715 30.2412 21.3526 30.4244 21.3249 30.6048ZM38.0393 8.48741C33.5444 0.0137107 30.9949 0.0124055 30.0352 0.0120785L4.91193 5.86085e-07C2.24053 -0.00130441 0.0661085 2.17686 0.0648041 4.85542L0.0631736 8.65226L20.3844 8.66205C21.2214 8.66433 22.2033 8.75279 23.2269 9.69873L28.1511 9.71441C28.8502 9.71538 29.5086 9.99577 30.0049 10.5046C30.5013 11.0135 30.7738 11.6882 30.7716 12.4044L30.7693 12.5222L30.7683 14.7343C30.7677 15.4778 30.1341 16.1209 29.2611 16.2638L29.0178 16.304L29.0289 12.3025L29.5372 12.3029C29.4913 11.5665 28.8847 10.9737 28.1455 10.9721L24.442 10.9633C27.8161 14.8553 31.221 21.7363 31.2174 24.4609C31.2174 24.4609 31.2171 24.61 31.216 24.8531L29.1535 24.8519L29.1528 26.2349L31.2121 26.2385C31.2082 27.5363 31.2037 29.1044 31.2037 29.3156C31.2033 29.6858 31.1238 30.378 30.0822 30.3741C29.8647 30.3741 27.067 30.3672 22.5327 30.3569C22.5535 30.1757 22.5669 29.9919 22.5672 29.8055C22.5708 28.5066 22.0785 27.2852 21.1816 26.3657C20.2842 25.4462 19.0895 24.9386 17.7996 24.9371C15.1905 24.9358 13.0611 27.1086 13.0533 29.7816C13.053 29.9684 13.0654 30.1316 13.0849 30.3141C9.56797 30.3059 4.26593 30.3164 0.0527384 30.3081L0.0507818 34.1289C0.0494774 36.8064 2.22195 38.9865 4.89335 38.9878L30.0166 39C30.978 39.0003 33.5314 39.0015 38.0348 30.4277C39.8635 26.9465 41.9995 21.9739 42.0008 19.418C42.0017 16.8635 39.8678 11.933 38.0393 8.48741ZM17.9726 18.4051L0.0580252 18.3965L0.057373 19.9297L19.5153 19.9393L19.1312 19.0784C18.8886 18.6616 18.4481 18.4054 17.9726 18.4051ZM9.24031 25.1615L9.35152 24.9718L0.0550955 24.9673L0.0544433 25.8433L7.84917 25.8473C8.45084 25.8473 8.99607 25.5787 9.24031 25.1615Z" fill="#F9253F"/>
<defs>
<clipPath id="clip0_1398_5149">
<rect width="64.092" height="13.1954" fill="white" transform="translate(63.9072 25)"/>
</clipPath>
</defs>
</svg>